<svg xmlns="http://www.w3.org/2000/svg" width="800" height="600" viewBox="0 0 800 600" preserveAspectRatio="none">
  <rect width="100%" height="100%" fill="#02030a" />
  <g fill="#ffffff" opacity="0.9">
    <circle cx="40" cy="30" r="1.2" />
    <circle cx="120" cy="90" r="0.9" />
    <circle cx="200" cy="20" r="0.8" />
    <circle cx="260" cy="140" r="1.1" />
    <circle cx="340" cy="60" r="0.6" />
    <circle cx="420" cy="200" r="1.3" />
    <circle cx="500" cy="40" r="0.7" />
    <circle cx="580" cy="160" r="0.9" />
    <circle cx="660" cy="80" r="1.0" />
    <circle cx="740" cy="220" r="0.6" />
  </g>
  <g fill="#c8ffd9" opacity="0.35">
    <circle cx="90" cy="260" r="0.9" />
    <circle cx="170" cy="320" r="0.7" />
    <circle cx="250" cy="280" r="1.0" />
    <circle cx="330" cy="340" r="0.8" />
    <circle cx="410" cy="300" r="0.6" />
    <circle cx="490" cy="360" r="0.9" />
    <circle cx="570" cy="320" r="0.7" />
    <circle cx="650" cy="380" r="0.5" />
    <circle cx="730" cy="340" r="0.8" />
  </g>
</svg>